<?xml version="1.0" encoding="iso-8859-1"?>
<!-- Generator: Adobe Illustrator 18.0.0, SVG Export Plug-In . SVG Version: 6.00 Build 0)  -->
<!DOCTYPE svg PUBLIC "-//W3C//DTD SVG 1.1//EN" "http://www.w3.org/Graphics/SVG/1.1/DTD/svg11.dtd">
<svg version="1.1" id="Artwork" xmlns="http://www.w3.org/2000/svg" xmlns:xlink="http://www.w3.org/1999/xlink" x="0px" y="0px"
	 viewBox="0 0 350 350" style="enable-background:new 0 0 350 350;" xml:space="preserve">
<path d="M286.164,253.14l-17.734-94.525c-0.668-3.56-2.719-6.467-5.625-7.975c-2.906-1.507-6.463-1.512-9.759-0.008l-42.789,19.515
	c5.482-11.732,13.062-29.146,13.062-38.452c0-28.337-23.054-51.392-51.39-51.392c-28.338,0-51.394,23.054-51.394,51.392
	c0,17.206,15.686,46.623,22.186,58.606C161,224,170,229,171.928,228.709h2.5v-74.306h-2.5c-10.704,0-19.413-8.708-19.413-19.41
	c0-10.704,8.708-19.412,19.413-19.412c10.703,0,19.41,8.708,19.41,19.412c0,3.952-1.179,7.752-3.409,10.991
	c-0.782,1.137-0.495,2.694,0.642,3.477c1.139,0.783,2.694,0.497,3.478-0.641c2.807-4.077,4.29-8.858,4.29-13.827
	c0-13.461-10.95-24.412-24.41-24.412c-13.461,0-24.413,10.951-24.413,24.412c0,12.616,9.621,23.027,21.913,24.283v62.052
	c-4.729-5.131-13.7-17.872-23.149-34.912c-12.989-23.422-20.744-43.878-20.744-54.722c0-25.581,20.812-46.392,46.394-46.392
	c25.58,0,46.39,20.811,46.39,46.392c0,9.306-9.818,31.792-15.709,42.61c-0.66,1.213-0.213,2.731,1,3.392
	c0.941,0.512,1.925,0.146,2.828-0.312C219,171,255.12,155.181,255.12,155.181c1.913-0.873,3.825-0.911,5.382-0.103
	c1.555,0.807,2.625,2.391,3.014,4.459l17.734,94.525c0.394,2.096-0.048,4.044-1.243,5.484c-1.194,1.44-3.027,2.233-5.161,2.233
	H76.571c-2.133,0-3.965-0.793-5.161-2.233c-1.195-1.44-1.636-3.388-1.243-5.485l17.737-94.524c0.879-4.683,5.642-8.64,10.402-8.639
	l10.854,0.001c1.381,0,2.5-1.119,2.5-2.5c0-1.381-1.119-2.5-2.5-2.5l-10.854-0.001h-0.001c-7.129,0-14,5.705-15.315,12.717
	L65.253,253.14c-0.673,3.585,0.147,6.994,2.31,9.6c2.162,2.605,5.361,4.04,9.008,4.04h198.275c3.647,0,6.848-1.435,9.01-4.04
	C286.017,260.133,286.837,256.724,286.164,253.14z"/>
</svg>
